<svg xmlns="http://www.w3.org/2000/svg" width="96" height="96">
    <path style="stroke:none;fill-rule:nonzero;fill:#000;fill-opacity:1" d="M18 9v78h60V28.8l-.902-.898-18-18L58.203 9zm6 6h30v18h18v48H24zm36 4.2 7.797 7.8H60zM30 27v6h18v-6zm0 12v6h36v-6zm10.5 9c-2.7 0-4.8 1.8-6 3.902-1.2 2.102-1.5 4.801-1.5 7.801 0 1.797.602 3.594.902 5.395-1.199.3-2.402 1.199-3.902 1.199v6c2.102 0 4.2-.293 6-.895.3.602.3.899.902 1.5A7.23 7.23 0 0 0 42 75c4.8 0 7.8-3.3 9.902-5.703.301-.598.598-.899.895-1.2 0 .301 0 .602.3.903.301.602.602 1.2 1.2 1.797C54.898 71.398 56.102 72 57 72c1.8 0 2.996-1.2 3.598-1.797.601-.601 1.203-1.504 1.804-2.105 1.2-1.2 2.098-2.098 3.301-2.098v-6c-3.601 0-6.3 2.102-7.8 3.902 0-.3-.005-.601-.305-.902-.301-.602-.594-1.2-1.196-2.098C55.801 60.004 54.898 60 54 60c-2.398 0-3.3 1.504-4.203 2.402-.899.899-1.793 2.098-2.395 3.301C45.602 67.801 44.398 69 42 69c-.3 0-.297-.297-.598-.297.301 0 .297-.3.598-.3 3.3-2.7 6-6.305 6-11.106 0-2.399-.598-4.496-1.797-6.297-1.203-1.8-3.305-3-5.703-3zm-.297 6c.899 0 .899-.004 1.2.598.3.601.597 1.5.597 3 0 1.8-.902 3.605-2.402 5.105 0-.902-.598-2.101-.598-2.703 0-2.398.3-4.2.902-5.098.301-.601.301-.902.301-.902zm0 0"/>
</svg>
