<svg xmlns="http://www.w3.org/2000/svg" width="96" height="96">
    <path style="stroke:none;fill-rule:nonzero;fill:#000;fill-opacity:1" d="M30 54h-3c-6.629 0-12 5.383-12 12.023v11.954C15 84.617 20.371 90 27 90h3c3.313 0 6-2.691 6-6.012V60.012C36 56.692 33.312 54 30 54zm39 0h-3c-3.313 0-6 2.691-6 6.012v23.976C60 87.308 62.688 90 66 90h3c6.629 0 12-5.383 12-12.023V66.023C81 59.383 75.629 54 69 54zM48 6C21.172 6 .855 28.336 0 54v21a3 3 0 0 0 3 3h3a3 3 0 0 0 3-3V54c0-21.5 17.5-38.96 39-38.965C69.5 15.04 87 32.5 87 54v21a3 3 0 0 0 3 3h3a3 3 0 0 0 3-3V54C95.145 28.336 74.828 6 48 6zm0 0"/>
</svg>
