<svg xmlns="http://www.w3.org/2000/svg" width="96" height="96">
    <path style="stroke:none;fill-rule:nonzero;fill:#000;fill-opacity:1" d="M57 36v6a2.256 2.256 0 0 1-2.25 2.25h-10.5v10.5A2.256 2.256 0 0 1 42 57h-6a2.256 2.256 0 0 1-2.25-2.25v-10.5h-10.5A2.256 2.256 0 0 1 21 42v-6a2.256 2.256 0 0 1 2.25-2.25h10.5v-10.5A2.256 2.256 0 0 1 36 21h6a2.256 2.256 0 0 1 2.25 2.25v10.5h10.5A2.256 2.256 0 0 1 57 36zm37.688 53.383-5.305 5.305c-1.766 1.761-4.613 1.761-6.36 0l-18.71-18.696A4.491 4.491 0 0 1 63 72.805V69.75C56.383 74.926 48.055 78 39 78 17.457 78 0 60.543 0 39S17.457 0 39 0s39 17.457 39 39c0 9.055-3.074 17.383-8.25 24h3.055c1.203 0 2.343.469 3.187 1.313l18.695 18.695a4.541 4.541 0 0 1 0 6.375zM64.5 39c0-14.102-11.398-25.5-25.5-25.5S13.5 24.898 13.5 39 24.898 64.5 39 64.5 64.5 53.102 64.5 39zm0 0"/>
</svg>
