<svg xmlns="http://www.w3.org/2000/svg" width="64" height="64">
    <path style="stroke:none;fill-rule:nonzero;fill:#000;fill-opacity:1" d="M53.332 32c0 11.781-9.55 21.332-21.332 21.332-11.781 0-21.332-9.55-21.332-21.332 0-11.781 9.55-21.332 21.332-21.332 2.027 0 4 .293 5.867.824l4.188-4.183C38.96 6.027 35.575 5.332 32 5.332 17.273 5.332 5.332 17.273 5.332 32c0 14.727 11.941 26.668 26.668 26.668 14.727 0 26.668-11.941 26.668-26.668m-37.574-5.121-3.762 3.789 12 12L56 16l-3.762-3.785L29.332 35.12zm0 0"/>
</svg>
