<svg xmlns="http://www.w3.org/2000/svg" width="96" height="96">
    <path style="stroke:none;fill-rule:nonzero;fill:#000;fill-opacity:1" d="M84 20c-4.441-1.398-9.32-2-14-2-7.8 0-16.2 1.602-22 6-5.8-4.398-14.2-6-22-6-7.8 0-16.2 1.602-22 6v58.602c0 1 1 2 2 2 .398 0 .602-.204 1-.204C12.398 81.801 20.2 80 26 80c7.8 0 16.2 1.602 22 6 5.398-3.398 15.2-6 22-6 6.602 0 13.398 1.2 19 4.2.398.198.602.198 1 .198 1 0 2-1 2-2V24c-2.398-1.8-5-3-8-4zm0 54c-4.398-1.398-9.2-2-14-2-6.8 0-16.602 2.602-22 6V32c5.398-3.398 15.2-6 22-6 4.8 0 9.602.602 14 2zm0 0"/>
    <path style="stroke:none;fill-rule:nonzero;fill:#000;fill-opacity:1" d="M70 42c3.52 0 6.922.36 10 1.04v-6.08A53.868 53.868 0 0 0 70 36c-6.8 0-12.96 1.16-18 3.32v6.64C56.52 43.399 62.8 42 70 42zM52 49.96v6.642c4.52-2.563 10.8-3.961 18-3.961 3.52 0 6.922.359 10 1.039v-6.078a53.868 53.868 0 0 0-10-.961c-6.8 0-12.96 1.199-18 3.32zM70 57.32c-6.8 0-12.96 1.16-18 3.32v6.641c4.52-2.562 10.8-3.96 18-3.96 3.52 0 6.922.359 10 1.038v-6.078c-3.16-.64-6.559-.96-10-.96zm0 0"/>
</svg>
