<svg xmlns="http://www.w3.org/2000/svg" width="96" height="96">
    <path style="stroke:none;fill-rule:nonzero;fill:#000;fill-opacity:1" d="M68.563 18.023c-8.07.223-14.325 2.415-20.418 4.528-6.512 2.265-12.66 4.398-21.172 4.484-5.692.09-11.395-.89-16.993-2.828L6 22.828v51.246l1.996.707c5.219 1.848 10.555 2.91 15.863 3.168.844.035 1.668.055 2.48.055 9.036 0 15.958-2.395 22.669-4.715 7.074-2.45 13.746-4.758 22.851-4.332 4.723.227 9.477 1.184 14.141 2.832l4 1.418V21.941l-1.973-.718a53.47 53.47 0 0 0-15.89-3.172 49.922 49.922 0 0 0-3.575-.028zm.16 5.957a44.712 44.712 0 0 1 3.148.016c1.121.047 2.246.149 3.363.281C76.035 27.555 78.973 30 82.5 30c.512 0 1.016-.055 1.5-.152v27.304A7.602 7.602 0 0 0 82.5 57c-3.707 0-6.766 2.695-7.371 6.23a54.91 54.91 0 0 0-2.988-.226c-10.246-.45-17.801 2.129-25.102 4.66-7.082 2.453-13.793 4.773-22.894 4.34a45.096 45.096 0 0 1-3.383-.297C19.953 68.434 17.023 66 13.5 66c-.512 0-1.016.055-1.5.152V38.848c.484.097.988.152 1.5.152 3.734 0 6.8-2.734 7.379-6.305 2.055.215 4.11.34 6.156.305 9.496-.098 16.399-2.5 23.078-4.824 5.883-2.047 11.492-3.973 18.61-4.196zM48 36c0 4.316-1.684 6-6 6v6c2.328 0 4.309-.453 6-1.234V60h6V36zm22.5 3a4.501 4.501 0 0 0 0 9 4.501 4.501 0 0 0 0-9zm-45 9a4.501 4.501 0 0 0 0 9 4.501 4.501 0 0 0 0-9zm0 0"/>
</svg>
