<svg xmlns="http://www.w3.org/2000/svg" width="96" height="96">
    <path style="stroke:none;fill-rule:evenodd;fill:#000;fill-opacity:1" d="M48 0c-4.14 0-11.059 1.59-17.566 3.36-6.66 1.8-13.375 3.93-17.325 5.218a9.245 9.245 0 0 0-6.261 7.574c-3.578 26.864 4.718 46.77 14.789 59.942a70.615 70.615 0 0 0 15.101 14.715c2.317 1.64 4.465 2.894 6.29 3.75C44.706 95.352 46.511 96 48 96c1.488 0 3.29-.648 4.973-1.441a42.424 42.424 0 0 0 6.289-3.75 70.615 70.615 0 0 0 15.101-14.715c10.07-13.172 18.367-33.078 14.79-59.942a9.245 9.245 0 0 0-6.262-7.578 371.109 371.109 0 0 0-17.325-5.219C59.06 1.598 52.141 0 48 0zm12.875 30.875a3.008 3.008 0 0 1 4.25 0 3.008 3.008 0 0 1 0 4.25l-18 18a3.007 3.007 0 0 1-4.25 0l-9-9a3.008 3.008 0 0 1 0-4.25 3.008 3.008 0 0 1 4.25 0L45 46.758zm0 0"/>
</svg>
